<svg xmlns="http://www.w3.org/2000/svg" viewBox="0 0 211.93 203.75"><defs><style>.cls-1{fill:#fff;}.cls-2{fill:#2c5aa0;}</style></defs><g id="레이어_2" data-name="레이어 2"><g id="레이어_1-2" data-name="레이어 1"><path class="cls-1" d="M105.68,0h.57C164.8,0,211.93,45.43,211.93,101.87S164.8,203.74,106.25,203.74h-.57C47.14,203.74,0,158.3,0,101.87S47.14,0,105.68,0Z"/><path class="cls-2" d="M150.88,43.3,151,69.86l-21-.07s-8.18,2.07-8.44,7.32-.39,23.77-.39,23.77l29.43-.14-4.09,29.55-25.55.21.05,72.27a104,104,0,0,1-16.07,1c-10.81-.16-14.7-1.07-14.7-1.07l0-72.34H64.57V101l25.65,0L90,74c4.51-26.53,21.19-30.64,60.87-30.7Z"/></g></g></svg>