<svg xmlns="http://www.w3.org/2000/svg" viewBox="0 0 211.45 211.45"><defs><style>.cls-1{fill:#fff;}.cls-2{fill:#d83e28;}.cls-3{fill:#eebb19;}.cls-4{fill:#5374b1;}.cls-5{fill:#1e9b44;}</style></defs><g id="레이어_2" data-name="레이어 2"><g id="Layer_1" data-name="Layer 1"><circle class="cls-1" cx="105.72" cy="105.72" r="105.72"/><path class="cls-1" d="M84.51,40.37a69.17,69.17,0,0,0,4.73,132.16,73.85,73.85,0,0,0,35.37.38,61,61,0,0,0,45.81-43.43,81.36,81.36,0,0,0,1.76-36.71H107.11q0,13.49,0,27h37.68A32.44,32.44,0,0,1,131,141.11a39.57,39.57,0,0,1-15.22,6,45.14,45.14,0,0,1-16.51-.05,40.5,40.5,0,0,1-15.39-6.65A42.93,42.93,0,0,1,68,119.19a41.88,41.88,0,0,1,0-26.93A42.84,42.84,0,0,1,78,76a40.61,40.61,0,0,1,41-10.64,37.39,37.39,0,0,1,14.91,8.76q6.38-6.35,12.72-12.72c2.23-2.28,4.57-4.46,6.72-6.8a66.84,66.84,0,0,0-22.25-13.78A69.88,69.88,0,0,0,84.51,40.37Z"/><path class="cls-2" d="M84.51,40.37a69.88,69.88,0,0,1,46.57.41,66.84,66.84,0,0,1,22.25,13.78c-2.15,2.34-4.49,4.52-6.72,6.8q-6.36,6.36-12.72,12.72A37.39,37.39,0,0,0,119,65.32,40.61,40.61,0,0,0,78,76a42.84,42.84,0,0,0-10,16.3L45.33,74.68A69.47,69.47,0,0,1,84.51,40.37Z"/><path class="cls-3" d="M39.32,92.06a69,69,0,0,1,6-17.38L68,92.26a41.88,41.88,0,0,0,0,26.93Q56.66,128,45.33,136.77A69.26,69.26,0,0,1,39.32,92.06Z"/><path class="cls-4" d="M107.11,92.77h65.07a81.36,81.36,0,0,1-1.76,36.71,62.8,62.8,0,0,1-17.5,28.7c-7.31-5.7-14.66-11.37-22-17.07a32.44,32.44,0,0,0,13.84-21.36H107.11Q107.1,106.27,107.11,92.77Z"/><path class="cls-5" d="M45.33,136.77Q56.67,128,68,119.19a42.93,42.93,0,0,0,15.85,21.23,40.5,40.5,0,0,0,15.39,6.65,45.14,45.14,0,0,0,16.51.05,39.57,39.57,0,0,0,15.22-6c7.31,5.7,14.66,11.37,22,17.07a62.44,62.44,0,0,1-28.31,14.73,73.85,73.85,0,0,1-35.37-.38,69.29,69.29,0,0,1-43.91-35.76Z"/></g></g></svg>